<svg xmlns="http://www.w3.org/2000/svg" viewBox="0 0 400 240" role="img" aria-label="Mégaphone, courbe de croissance et cible du marketing digital">
  <defs>
    <linearGradient id="lg" x1="0" y1="0" x2="1" y2="1">
      <stop offset="0" stop-color="#00A8FF"/><stop offset="1" stop-color="#00F5A0"/>
    </linearGradient>
    <radialGradient id="rg" cx=".42" cy=".38" r=".62">
      <stop offset="0" stop-color="rgba(0,245,160,.13)"/><stop offset="1" stop-color="rgba(0,245,160,0)"/>
    </radialGradient>
  </defs>
  <rect width="400" height="240" rx="18" fill="#0d1a23"/>
  <rect width="400" height="240" rx="18" fill="url(#rg)"/>
  <g stroke="#1f3b4a" stroke-width="1"><path d="M0 180h400"/><path d="M74 180v-118"/></g>

  <g fill="none" stroke="#E8C364" stroke-width="2.4" stroke-linecap="round" stroke-linejoin="round">
    <path d="M246 84h60l16 8 16-8v46l-16 14-16-6-24 18-14-10 6-52z" fill="rgba(232,195,100,.2)"/>
    <path d="M266 132l-6 20 16-12"/>
  </g>
  <g stroke="url(#lg)" stroke-width="2.4" stroke-linecap="round" fill="none">
    <path d="M286 92l12 12-12 12"/>
    <path d="M296 92l12 12-12 12" opacity=".7"/>
    <path d="M306 92l12 12-12 12" opacity=".45"/>
  </g>

  <g fill="none" stroke="url(#lg)" stroke-width="3" stroke-linecap="round" stroke-linejoin="round">
    <path d="M98 168l52-58 26 22 40-50"/>
    <circle cx="216" cy="82" r="6" fill="#00F5A0"/>
  </g>
  <g fill="none" stroke="#00A8FF" stroke-width="2.4" stroke-linecap="round">
    <path d="M98 168h118"/>
  </g>

  <g fill="none" stroke="#5b7b8d" stroke-width="2.2" stroke-linecap="round" stroke-linejoin="round">
    <circle cx="118" cy="102" r="26"/>
    <circle cx="118" cy="102" r="13" opacity=".45"/>
    <circle cx="118" cy="102" r="3.4" fill="#00A8FF"/>
  </g>
  <path d="M118 128v12" stroke="#5b7b8d" stroke-width="2.2" stroke-linecap="round"/>
  <path d="M96 116l-12 12M140 116l12 12" stroke="#5b7b8d" stroke-width="2.2" stroke-linecap="round" opacity=".7"/>

  <g fill="none" stroke="#00F5A0" stroke-width="2" stroke-linecap="round">
    <path d="M284 170l14-14"/>
    <rect x="284" y="152" width="22" height="22" rx="5"/>
    <path d="M291 163l4 4 6-7"/>
  </g>
  <circle cx="210" cy="150" r="3" fill="#1f3b4a"/>
</svg>